<svg xmlns="http://www.w3.org/2000/svg" aria-hidden="true" style="position:absolute;width:0;height:0;overflow:hidden"><defs><symbol id="icon-ep_arrow-right-bold" viewBox="0 0 32 32"><path d="M10.586 3.272a2 2 0 0 0 0 2.828l9.9 9.9-9.9 9.9a1.998 1.998 0 0 0 .025 2.804 2.001 2.001 0 0 0 2.804.025l11.314-11.314a2 2 0 0 0 0-2.828L13.415 3.273a2 2 0 0 0-2.828 0z"/></symbol><symbol id="icon-ep_close" viewBox="0 0 32 32"><path fill="#fcfcfc" d="M23.884 6.706 16 14.59 8.116 6.706a.995.995 0 0 0-1.38.031 1 1 0 0 0-.031 1.38l7.88 7.884-7.882 7.882a1.002 1.002 0 0 0-.018 1.427.998.998 0 0 0 1.427-.015l7.886-7.882 7.884 7.884a1 1 0 0 0 1.38-.03 1 1 0 0 0 .03-1.38l-7.884-7.884 7.884-7.886a1.002 1.002 0 0 0 .018-1.427.998.998 0 0 0-1.427.015v.002z" style="fill:var(--color1, #fcfcfc)"/></symbol><symbol id="icon-Arrow" viewBox="0 0 82 32"><path fill="#fcfcfc" d="M81.414 17.414a2 2 0 0 0 0-2.828L68.686 1.858a2 2 0 1 0-2.828 2.828L77.172 16 65.858 27.314a2 2 0 1 0 2.828 2.828l12.728-12.728zM0 18h80v-4H0v4z" style="fill:var(--color1, #fcfcfc)"/></symbol><symbol id="icon-Property-1Default" viewBox="0 0 32 32"><path stroke-width="2" d="M4 1h24a3 3 0 0 1 3 3v24a3 3 0 0 1-3 3H4a3 3 0 0 1-3-3V4a3 3 0 0 1 3-3z"/></symbol><symbol id="icon-Property-1click" viewBox="0 0 32 32"><path fill="#404bbf" d="M4 1h24a3 3 0 0 1 3 3v24a3 3 0 0 1-3 3H4a3 3 0 0 1-3-3V4a3 3 0 0 1 3-3z" style="fill:var(--color2, #404bbf)"/><path fill="#f4f4fd" d="M22.891 8.51a1.832 1.832 0 0 1 2.558.02 1.855 1.855 0 0 1 .068 2.571L15.728 23.41a1.845 1.845 0 0 1-1.314.591 1.83 1.83 0 0 1-1.336-.542l-6.492-6.527a1.863 1.863 0 0 1-.451-2.046 1.85 1.85 0 0 1 1.017-1.022 1.823 1.823 0 0 1 1.438.026c.225.101.429.247.597.429l5.137 5.163 8.521-10.915a.628.628 0 0 1 .049-.054h-.002z" style="fill:var(--color3, #f4f4fd)"/><path fill="none" stroke="#404bbf" stroke-width="2" d="M4 1h24a3 3 0 0 1 3 3v24a3 3 0 0 1-3 3H4a3 3 0 0 1-3-3V4a3 3 0 0 1 3-3z" style="stroke:var(--color2, #404bbf)"/></symbol></defs></svg>