<?xml version="1.0" standalone="no"?>
<!DOCTYPE svg PUBLIC "-//W3C//DTD SVG 20010904//EN"
 "http://www.w3.org/TR/2001/REC-SVG-20010904/DTD/svg10.dtd">
<svg version="1.0" xmlns="http://www.w3.org/2000/svg"
 width="1152.000000pt" height="1152.000000pt" viewBox="0 0 1152.000000 1152.000000"
 preserveAspectRatio="xMidYMid meet">
<metadata>
Created by potrace 1.14, written by Peter Selinger 2001-2017
</metadata>
<g transform="translate(0.000000,1152.000000) scale(0.100000,-0.100000)"
fill="#000000" stroke="none">
<path d="M5799 11515 c-5 -19 -4 -32 3 -47 8 -17 38 -164 36 -176 -1 -4 1 -14
5 -22 3 -8 9 -42 13 -75 8 -63 11 -77 13 -85 5 -13 13 -133 13 -200 2 -98 -7
-171 -36 -295 -19 -82 -92 -237 -161 -340 -60 -91 -219 -244 -325 -314 -52
-33 -99 -61 -106 -61 -7 0 -14 -3 -16 -8 -5 -11 -175 -89 -388 -177 -102 -42
-194 -82 -205 -88 -11 -6 -22 -12 -25 -12 -14 -3 -134 -64 -205 -104 -253
-142 -497 -389 -609 -616 -40 -81 -74 -165 -81 -205 -2 -8 -4 -15 -6 -15 -1 0
-3 -9 -5 -20 -2 -11 -7 -38 -13 -60 -15 -66 -23 -135 -25 -225 -4 -204 58
-347 192 -446 l42 -31 -27 -21 c-16 -12 -68 -48 -118 -81 -49 -33 -120 -84
-157 -113 -37 -29 -82 -64 -100 -78 -18 -14 -51 -41 -73 -60 -22 -20 -67 -58
-100 -85 -198 -165 -317 -305 -361 -425 -22 -63 -28 -184 -9 -219 8 -16 12
-31 9 -34 -11 -11 84 -93 135 -117 l50 -24 -82 -81 c-130 -129 -154 -196 -142
-404 11 -196 8 -241 -30 -394 -14 -55 -25 -113 -25 -130 0 -16 16 -64 36 -106
28 -59 55 -94 118 -156 74 -74 187 -155 215 -155 6 0 11 -5 11 -11 0 -5 4 -8
8 -5 13 8 52 -31 53 -52 0 -9 2 -24 4 -32 7 -38 16 -157 21 -280 7 -197 15
-453 15 -467 -1 -7 -1 -19 -1 -25 -1 -7 1 -80 4 -163 3 -82 8 -233 11 -335 19
-607 15 -592 180 -723 147 -116 225 -212 273 -337 21 -56 37 -105 33 -105 -1
0 5 -17 14 -37 8 -21 13 -38 11 -38 -3 0 1 -18 9 -40 8 -22 14 -42 15 -45 0
-3 0 -6 1 -7 0 -2 2 -12 4 -23 2 -11 13 -60 24 -110 12 -49 24 -101 27 -115 2
-14 11 -56 20 -95 9 -38 18 -81 20 -94 3 -12 11 -51 19 -85 8 -33 17 -77 20
-96 3 -19 12 -62 19 -95 8 -33 14 -67 15 -75 0 -8 14 -78 31 -155 17 -77 33
-151 35 -165 9 -45 13 -66 38 -190 9 -41 18 -88 21 -104 3 -16 10 -52 16 -80
17 -84 20 -99 26 -136 3 -19 8 -39 11 -43 2 -4 6 -23 9 -42 2 -19 11 -67 20
-107 15 -72 17 -82 28 -143 6 -36 12 -62 27 -133 13 -54 50 -97 169 -193 136
-110 405 -189 737 -216 118 -10 647 -10 753 0 383 35 602 104 762 241 111 95
134 125 143 187 10 59 12 72 15 79 1 3 3 16 6 30 3 19 40 205 79 401 2 9 6 34
9 55 4 21 13 66 20 99 8 33 17 77 20 99 4 21 9 42 12 47 2 5 7 25 9 46 2 21 9
61 15 88 7 28 14 60 16 73 2 12 6 32 8 45 2 12 14 69 26 127 12 58 24 116 26
130 2 14 11 57 20 95 9 39 18 81 20 95 4 21 10 52 20 95 1 6 5 25 8 42 4 18
15 70 27 115 11 46 21 92 23 103 8 49 78 317 93 355 4 8 7 17 8 20 8 33 30 90
41 108 8 12 12 22 9 22 -8 0 45 99 70 130 27 34 106 110 199 194 123 110 128
119 141 266 10 121 20 366 30 750 14 549 26 832 40 970 2 14 3 37 4 51 1 20
21 40 94 95 78 59 217 188 252 235 28 37 66 126 70 164 1 6 5 20 9 33 15 43 8
195 -12 272 -26 99 -86 227 -144 305 -85 116 -211 244 -349 355 -24 19 -54 45
-68 56 l-25 22 29 38 c42 54 106 154 99 154 -3 0 3 15 14 33 34 54 64 191 63
286 0 85 -1 98 -16 176 -13 74 -96 275 -117 283 -4 2 -8 9 -8 15 0 15 -103
152 -156 209 -65 68 -151 145 -215 191 -101 73 -149 106 -182 126 -42 26 -43
20 17 86 49 55 126 181 126 209 0 6 6 23 14 38 14 26 66 231 71 278 1 14 6 59
11 100 9 72 10 428 3 537 -2 29 -8 53 -12 53 -5 0 -6 4 -2 9 5 8 -18 160 -30
201 -2 8 -7 27 -10 43 -3 15 -8 39 -11 54 -5 28 -62 202 -85 263 -51 133 -217
396 -344 546 -158 185 -354 363 -544 494 -96 66 -371 241 -390 247 -9 3 -23
12 -31 18 -17 15 -224 125 -234 125 -3 0 -7 -2 -7 -5z m657 -842 c261 -259
329 -337 438 -505 123 -190 230 -460 267 -678 37 -217 26 -478 -28 -650 -9
-30 -17 -57 -17 -60 -4 -19 -55 -133 -78 -173 -29 -50 -94 -140 -138 -192 -50
-60 -247 -252 -305 -298 -33 -27 -68 -55 -78 -63 -9 -7 -19 -14 -22 -14 -3 0
-26 -15 -52 -34 -54 -38 -291 -183 -338 -206 -16 -8 -32 -18 -35 -21 -3 -3
-43 -26 -90 -52 -47 -25 -114 -62 -150 -81 -36 -20 -135 -71 -220 -113 -85
-43 -156 -81 -158 -85 -2 -5 -8 -8 -13 -8 -5 0 -88 -38 -185 -85 -97 -47 -178
-85 -180 -85 -3 0 -33 -13 -67 -29 -129 -60 -197 -90 -197 -86 0 2 -21 -6 -47
-19 -27 -13 -122 -52 -213 -86 -91 -35 -178 -68 -195 -75 -49 -21 -317 -106
-337 -108 -10 -1 -18 -4 -18 -7 0 -4 -6 -7 -12 -7 -7 0 -58 -12 -113 -26 -90
-23 -177 -41 -260 -53 -63 -10 -218 -11 -268 -2 -64 12 -118 41 -148 81 -28
39 -36 105 -16 143 30 57 127 140 313 265 44 30 185 131 313 224 128 94 245
179 260 190 32 22 191 140 206 152 6 4 127 96 270 203 283 212 279 208 303
230 10 8 40 31 67 52 28 20 59 46 70 59 l20 22 -30 -16 c-29 -15 -185 -89
-195 -92 -3 0 -32 -15 -66 -32 -64 -33 -248 -112 -274 -117 -8 -2 -22 -6 -30
-9 -8 -3 -28 -8 -43 -12 -271 -59 -387 24 -392 280 -1 52 5 89 30 201 3 12 13
39 22 60 9 22 17 41 18 44 3 15 59 116 71 128 8 7 14 17 14 22 0 20 124 158
211 235 93 82 252 163 589 299 353 143 614 277 736 377 68 57 157 146 197 198
23 31 44 58 47 61 20 19 116 183 158 271 49 105 127 305 136 350 2 13 9 44 15
69 5 25 13 71 16 102 6 51 9 57 24 49 9 -5 98 -90 197 -188z m572 -2712 c9 -4
40 -18 67 -31 186 -83 433 -305 511 -460 14 -28 27 -57 28 -64 1 -6 5 -17 9
-24 14 -21 15 -159 2 -214 -33 -142 -128 -283 -310 -464 -45 -44 -111 -104
-146 -133 -35 -29 -73 -60 -84 -69 -45 -37 -329 -222 -341 -222 -7 0 -14 -4
-16 -8 -5 -14 -297 -167 -411 -216 -20 -9 -52 -23 -71 -31 -187 -82 -522 -198
-696 -241 -8 -2 -33 -8 -55 -14 -34 -10 -167 -42 -230 -56 -75 -16 -215 -43
-260 -49 -22 -2 -49 -6 -60 -9 -11 -2 -42 -7 -70 -10 -27 -4 -61 -9 -75 -11
-26 -4 -87 -11 -162 -20 -178 -20 -484 -39 -853 -51 -115 -3 -220 -7 -232 -7
-43 -2 -12 -11 40 -13 29 -1 111 -5 182 -10 233 -14 861 -9 1150 10 93 7 210
17 235 21 14 2 50 7 80 10 30 3 62 7 70 10 8 2 35 7 60 10 25 4 64 11 88 16
23 5 59 12 80 15 20 3 62 12 92 19 31 8 73 17 94 20 21 4 55 13 77 20 21 8 39
12 39 10 0 -3 11 0 25 5 14 5 36 12 48 14 12 2 76 21 142 40 66 20 127 38 135
41 56 15 206 72 212 80 4 5 8 7 8 3 0 -17 426 175 555 250 111 64 135 79 175
106 25 17 53 36 62 41 9 6 54 36 100 68 46 31 89 57 96 57 6 0 12 4 12 9 0 14
95 51 118 46 48 -9 138 -81 282 -225 139 -140 164 -171 206 -259 31 -63 36
-84 37 -145 0 -87 -4 -109 -37 -177 -45 -95 -139 -177 -286 -246 -75 -35 -165
-69 -210 -78 -8 -2 -28 -8 -45 -15 -16 -6 -32 -12 -35 -12 -3 0 -9 -2 -15 -4
-24 -7 -248 -54 -282 -59 -21 -3 -49 -8 -63 -11 -14 -2 -34 -6 -46 -8 -12 -2
-45 -7 -74 -11 -29 -4 -62 -9 -74 -11 -12 -2 -41 -6 -65 -9 -24 -2 -60 -7 -80
-10 -53 -8 -145 -18 -266 -30 -70 -7 -187 -14 -302 -20 -46 -2 -87 -6 -93 -10
-5 -3 -10 -2 -10 3 0 6 -14 7 -32 3 -62 -13 -772 -3 -973 14 -33 3 -98 7 -145
10 -47 3 -101 7 -120 10 -19 2 -60 7 -90 10 -65 7 -120 14 -175 21 -22 4 -53
7 -70 9 -31 3 -117 15 -147 20 -9 2 -38 7 -65 11 -26 3 -57 9 -68 11 -11 2
-33 6 -50 9 -16 3 -100 21 -185 40 -85 19 -164 37 -176 39 -52 11 -284 89
-324 109 -25 13 -49 23 -55 24 -5 1 -51 22 -101 48 -212 108 -251 183 -191
377 8 26 13 47 10 47 -3 0 -1 6 5 13 7 8 10 79 9 199 l-2 187 45 46 c69 71
120 103 255 160 60 25 379 126 410 130 6 1 17 4 25 7 8 3 78 22 155 41 77 20
167 43 200 52 33 9 69 18 80 20 41 9 435 124 445 130 5 3 20 8 32 10 37 7 241
76 270 91 14 8 31 14 37 14 6 0 34 11 63 25 28 14 56 25 60 25 10 0 19 4 296
131 100 46 354 172 457 227 238 127 300 161 425 237 74 45 176 108 225 140
147 95 157 101 225 128 66 27 145 35 178 18z m-3271 -2952 c15 -6 36 -12 46
-14 10 -2 55 -15 100 -29 78 -24 325 -87 357 -91 8 -1 31 -5 50 -9 19 -4 44
-9 55 -11 11 -2 20 -4 20 -5 0 -2 24 -6 95 -14 30 -4 62 -9 70 -11 22 -6 192
-24 290 -31 321 -22 1002 -22 1365 1 107 7 219 15 275 20 30 3 82 8 115 10 33
3 70 7 83 9 13 3 53 8 90 12 78 8 107 12 107 14 0 1 14 3 30 5 17 2 48 6 70 9
22 3 54 7 70 10 17 3 100 17 185 31 85 14 166 28 180 31 14 2 48 7 75 10 47 4
51 3 54 -18 13 -87 2 -937 -14 -1116 -9 -99 -36 -230 -68 -332 -50 -161 -95
-211 -212 -235 -22 -5 -44 -9 -50 -11 -5 -1 -26 -5 -45 -8 -19 -4 -46 -9 -60
-11 -30 -6 -98 -14 -165 -20 -27 -2 -50 -5 -50 -5 0 -2 -48 -8 -130 -15 -44
-3 -98 -8 -120 -10 -413 -40 -1396 -50 -1815 -20 -30 2 -93 7 -140 10 -47 3
-103 8 -125 10 -22 2 -71 7 -110 10 -38 4 -81 9 -95 11 -14 2 -45 7 -70 9 -25
3 -52 7 -60 10 -8 2 -35 7 -60 10 -25 3 -63 11 -85 17 -22 5 -48 12 -59 14
-21 4 -82 22 -106 31 -8 4 -17 7 -20 8 -53 13 -127 87 -141 140 -6 22 -15 51
-20 65 -8 23 -16 88 -25 205 -3 28 -7 190 -9 360 -5 293 -5 361 -3 497 1 32
-1 61 -5 64 -4 4 -4 11 0 16 3 6 7 78 9 162 3 130 5 165 13 209 2 10 25 9 58
-4z m573 -2083 c35 -4 76 -8 90 -11 14 -2 54 -7 90 -10 36 -3 79 -8 95 -10 35
-5 103 -14 160 -20 22 -3 54 -7 70 -9 43 -7 167 -19 188 -20 9 0 17 -2 17 -4
0 -2 -40 -49 -88 -105 -139 -160 -268 -338 -343 -475 -68 -123 -95 -162 -111
-163 -10 -1 -24 -2 -30 -3 -12 -2 -97 33 -108 44 -3 3 -18 12 -35 20 -39 20
-42 24 -50 84 -4 28 -8 58 -10 66 -1 8 -10 60 -19 115 -9 55 -18 109 -20 120
-2 11 -7 40 -10 65 -3 25 -13 79 -21 120 -9 41 -18 93 -21 114 -3 22 -9 47
-14 56 -20 37 5 41 170 26z m2755 -28 c-4 -24 -9 -52 -11 -63 -2 -11 -11 -58
-19 -105 -8 -47 -16 -96 -19 -110 -2 -14 -7 -45 -11 -70 -10 -74 -14 -103 -19
-135 -3 -16 -7 -50 -11 -75 -3 -25 -10 -67 -15 -95 -5 -27 -12 -70 -15 -95 -3
-25 -7 -56 -9 -70 -10 -58 -19 -126 -21 -145 -1 -11 -5 -38 -10 -60 -4 -22 -9
-49 -10 -60 -10 -83 -16 -127 -25 -173 -5 -29 -9 -56 -9 -60 1 -4 0 -9 -1 -12
-1 -3 -3 -14 -4 -25 -7 -50 -17 -112 -21 -135 -9 -51 -17 -96 -20 -122 -2 -15
-9 -53 -14 -85 -6 -32 -13 -71 -16 -88 -2 -16 -7 -41 -10 -55 -3 -14 -8 -38
-11 -55 -3 -16 -17 -82 -31 -145 -14 -63 -27 -121 -28 -130 -2 -8 -4 -16 -5
-17 -2 -2 -3 -6 -4 -10 -34 -130 -75 -209 -139 -270 -42 -40 -135 -104 -157
-109 -3 0 -18 -6 -35 -13 -154 -66 -372 -104 -595 -104 -159 0 -358 8 -410 18
-14 2 -47 7 -75 10 -27 3 -53 9 -57 13 -10 10 32 73 139 212 56 74 246 294
281 327 74 68 88 66 317 -47 228 -113 318 -135 350 -87 36 55 -42 167 -190
272 -126 89 -191 153 -204 202 -10 35 -3 55 44 132 21 33 160 227 177 245 10
11 18 25 18 32 0 7 3 14 8 16 9 4 121 172 141 210 7 16 17 28 22 28 5 0 9 5 9
11 0 6 26 53 58 104 l57 94 64 -5 c36 -3 68 -7 72 -9 5 -4 136 -17 169 -17 46
-1 62 4 69 25 10 25 -4 53 -80 157 -59 81 -88 134 -85 151 9 45 109 243 228
450 7 13 19 29 26 37 6 7 12 17 12 22 0 15 115 130 129 130 9 0 11 -11 6 -42z
m-1627 -94 c20 -10 43 -18 50 -20 8 -1 22 -10 31 -18 10 -9 21 -16 25 -16 5 0
27 -15 50 -32 22 -18 48 -38 56 -45 21 -16 161 -131 185 -152 45 -39 198 -172
210 -184 98 -92 123 -120 117 -135 -6 -17 -47 -88 -87 -152 -80 -127 -199
-318 -209 -334 -6 -11 -14 -25 -19 -30 -4 -6 -50 -74 -103 -151 -52 -77 -103
-148 -113 -158 -24 -25 -43 -16 -177 81 -62 44 -240 164 -395 268 -156 103
-285 188 -287 189 -4 4 19 46 93 170 90 151 94 158 112 193 9 17 20 32 25 32
4 0 8 4 8 9 0 13 73 135 82 139 5 2 8 8 8 13 0 5 12 28 27 52 15 23 36 58 46
77 11 19 30 49 43 67 13 17 24 36 24 41 0 5 22 33 48 61 54 57 83 64 150 35z
m1142 0 c0 -25 -83 -135 -173 -230 -99 -104 -116 -108 -229 -51 -54 27 -294
188 -347 233 -13 11 19 14 324 30 134 6 327 22 332 27 1 2 23 4 48 6 36 1 45
-1 45 -15z m-2028 -1275 c112 -37 119 -40 328 -141 263 -128 485 -265 530
-328 19 -27 20 -34 9 -68 -6 -20 -17 -44 -23 -52 -6 -8 -22 -37 -36 -65 -14
-27 -29 -54 -33 -60 -4 -5 -40 -62 -79 -125 -39 -63 -81 -131 -93 -150 -13
-19 -36 -60 -52 -90 -50 -93 -77 -129 -106 -141 -34 -14 -111 -5 -189 22 -196
69 -267 170 -327 469 -6 30 -14 66 -17 80 -7 34 -24 129 -30 165 -2 17 -9 50
-14 75 -8 43 -15 86 -26 175 -3 22 -8 51 -10 65 -3 14 -7 63 -11 109 -6 93 -1
102 53 95 18 -2 75 -18 126 -35z"/>
</g>
</svg>
